<svg width="13" height="22" viewBox="0 0 13 22" fill="none" xmlns="http://www.w3.org/2000/svg">
<path id="Vector" d="M8.95237 14.6162L8.95237 6.52285C8.94302 5.93103 8.70136 5.36661 8.27953 4.95139C7.85771 4.53618 7.28954 4.30346 6.69765 4.30346C6.10576 4.30346 5.53759 4.53618 5.11577 4.95139C4.69394 5.36661 4.45228 5.93103 4.44293 6.52285L4.43561 17.1311C4.42948 17.637 4.52381 18.139 4.71314 18.6081C4.90247 19.0772 5.18303 19.5041 5.53856 19.864C5.8941 20.2238 6.31752 20.5096 6.78431 20.7046C7.25109 20.8996 7.75193 21 8.25781 21C8.76369 21 9.26453 20.8996 9.73131 20.7046C10.1981 20.5096 10.6215 20.2238 10.9771 19.864C11.3326 19.5041 11.6132 19.0772 11.8025 18.6081C11.9918 18.139 12.0861 17.637 12.08 17.1311L12.08 6.45139C12.0903 5.73925 11.9589 5.03216 11.6936 4.37124C11.4282 3.71031 11.034 3.10874 10.5341 2.60149C10.0341 2.09425 9.4383 1.69145 8.78128 1.41652C8.12427 1.14158 7.41915 1 6.70693 1C5.99471 1 5.2896 1.14158 4.63259 1.41652C3.97557 1.69145 3.37977 2.09425 2.87981 2.60149C2.37985 3.10874 1.98571 3.71031 1.72032 4.37123C1.45492 5.03216 1.32356 5.73925 1.33386 6.45139L1.33386 16.4312" stroke="black" stroke-width="1.5" stroke-miterlimit="10" stroke-linecap="round"/>
</svg>
