<svg width="28" height="27" viewBox="0 0 28 27" fill="none" xmlns="http://www.w3.org/2000/svg">
<g id="Group 19813">
<g id="Group 19805">
<path id="Vector" d="M1.01343 13.5C1.01343 7.60744 1.01343 4.66116 2.84402 2.83059C4.67459 1 7.62087 1 13.5134 1C19.4059 1 22.3523 1 24.1828 2.83059C26.0134 4.66116 26.0134 7.60744 26.0134 13.5C26.0134 19.3925 26.0134 22.3389 24.1828 24.1694C22.3523 26 19.4059 26 13.5134 26C7.62087 26 4.67459 26 2.84402 24.1694C1.01343 22.3389 1.01343 19.3925 1.01343 13.5Z" stroke="white" stroke-width="2"/>
</g>
<path id="Vector_2" d="M9.57408 7.43934C8.9883 6.85355 8.03854 6.85355 7.45276 7.43934C6.86698 8.02512 6.86698 8.97488 7.45276 9.56061L11.3921 13.5L7.4528 17.4394C6.86702 18.0252 6.86702 18.9748 7.4528 19.5606C8.03858 20.1465 8.98834 20.1465 9.57408 19.5606L13.5135 15.6214L17.4527 19.5606C18.0385 20.1465 18.9883 20.1465 19.5741 19.5606C20.1599 18.9748 20.1599 18.025 19.5741 17.4394L15.6347 13.5L19.5741 9.56061C20.1599 8.97492 20.1599 8.02516 19.5741 7.43938C18.9883 6.85359 18.0385 6.85359 17.4527 7.43938L13.5135 11.3788L9.57408 7.43934Z" fill="white"/>
</g>
</svg>
