<svg width="28" height="27" viewBox="0 0 28 27" fill="none" xmlns="http://www.w3.org/2000/svg">
<g id="Group 19811">
<g id="Group 19805">
<path id="Vector" d="M6.01343 10.9967C6.03152 8.86354 6.14994 7.68755 6.92547 6.91204C7.70098 6.13651 8.87697 6.01809 11.0102 6" stroke="white" stroke-width="2" stroke-linecap="round"/>
<path id="Vector_2" d="M6.01343 16.0009C6.03152 18.134 6.14994 19.31 6.92547 20.0855C7.70098 20.861 8.87697 20.9795 11.0102 20.9975" stroke="white" stroke-width="2" stroke-linecap="round"/>
<path id="Vector_3" d="M21.0104 10.9967C20.9923 8.86354 20.8738 7.68755 20.0983 6.91204C19.3228 6.13651 18.1468 6.01809 16.0137 6" stroke="white" stroke-width="2" stroke-linecap="round"/>
<path id="Vector_4" d="M21.0104 16.0009C20.9923 18.134 20.8738 19.31 20.0983 20.0855C19.3228 20.861 18.1468 20.9795 16.0137 20.9975" stroke="white" stroke-width="2" stroke-linecap="round"/>
<path id="Vector_5" d="M1.01343 13.5C1.01343 7.60744 1.01343 4.66116 2.84402 2.83059C4.67459 1 7.62087 1 13.5134 1C19.4059 1 22.3523 1 24.1828 2.83059C26.0134 4.66116 26.0134 7.60744 26.0134 13.5C26.0134 19.3925 26.0134 22.3389 24.1828 24.1694C22.3523 26 19.4059 26 13.5134 26C7.62087 26 4.67459 26 2.84402 24.1694C1.01343 22.3389 1.01343 19.3925 1.01343 13.5Z" stroke="white" stroke-width="2"/>
</g>
</g>
</svg>
