<svg width="14" height="20" viewBox="0 0 14 20" fill="none" xmlns="http://www.w3.org/2000/svg">
<g id="Group 43405">
<path id="Vector" d="M6.66667 13.3333C7.77176 13.3333 8.83148 12.8943 9.61291 12.1129C10.3943 11.3314 10.8333 10.2717 10.8333 9.16661V4.16661C10.8333 2.67794 10.0392 1.30242 8.75 0.558179C7.46076 -0.18606 5.87257 -0.18606 4.58333 0.558179C3.2941 1.30242 2.5 2.67799 2.5 4.16661V9.16661C2.5 10.2717 2.93899 11.3314 3.72043 12.1129C4.50187 12.8943 5.56157 13.3333 6.66667 13.3333ZM4.16667 4.16661C4.16667 3.27337 4.64324 2.44804 5.41667 2.00161C6.1901 1.55499 7.14324 1.55499 7.91667 2.00161C8.6901 2.44804 9.16667 3.27337 9.16667 4.16661V9.16661C9.16667 10.0599 8.6901 10.8852 7.91667 11.3316C7.14324 11.7782 6.1901 11.7782 5.41667 11.3316C4.64324 10.8852 4.16667 10.0599 4.16667 9.16661V4.16661Z" fill="black"/>
<path id="Vector_2" d="M13.3333 9.1667C13.3333 8.86889 13.1745 8.59379 12.9167 8.44498C12.6589 8.29617 12.3412 8.29617 12.0833 8.44498C11.8255 8.59379 11.6667 8.8689 11.6667 9.1667C11.6667 10.953 10.7137 12.6037 9.16667 13.4969C7.61962 14.3899 5.71372 14.3899 4.16667 13.4969C2.61962 12.6037 1.66667 10.953 1.66667 9.1667C1.66667 8.86889 1.50782 8.59379 1.25 8.44498C0.992186 8.29617 0.674477 8.29617 0.416667 8.44498C0.158857 8.59379 0 8.8689 0 9.1667C0.0014881 10.7895 0.594667 12.3559 1.66872 13.5726C2.74257 14.7891 4.22338 15.5722 5.83334 15.7749V18.3334H2.91667C2.61886 18.3334 2.34376 18.4922 2.19495 18.75C2.04614 19.0079 2.04614 19.3256 2.19495 19.5834C2.34376 19.8412 2.61887 20 2.91667 20H10.4167C10.7145 20 10.9896 19.8412 11.1384 19.5834C11.2872 19.3256 11.2872 19.0078 11.1384 18.75C10.9896 18.4922 10.7145 18.3334 10.4167 18.3334H7.5V15.7749C9.10996 15.5722 10.5908 14.7891 11.6646 13.5726C12.7387 12.3558 13.3319 10.7895 13.3333 9.1667Z" fill="black"/>
</g>
</svg>
