<svg width="27" height="26" viewBox="0 0 27 26" fill="none" xmlns="http://www.w3.org/2000/svg">
<g id="Group 43323">
<path id="Vector" fill-rule="evenodd" clip-rule="evenodd" d="M2.47666 2.9688C4.84427 0.601186 8.83965 0.781173 10.4882 3.7351L11.4028 5.37394C12.4793 7.30292 12.0206 9.73679 10.4446 11.332C10.4237 11.3608 10.3124 11.5227 10.2986 11.8057C10.2809 12.1669 10.4092 13.0023 11.7034 14.2966C12.9972 15.5905 13.8325 15.719 14.1939 15.7015C14.4772 15.6877 14.6393 15.5764 14.668 15.5554C16.2633 13.9794 18.6972 13.5207 20.6261 14.5972L22.2649 15.5118C25.2188 17.1603 25.3988 21.1558 23.0313 23.5233C21.7648 24.7898 20.0809 25.9151 18.102 25.99C15.1696 26.1012 10.3003 25.3439 5.47819 20.5218C0.656088 15.6997 -0.101206 10.8305 0.00995389 7.89799C0.0849815 5.91914 1.21024 4.23522 2.47666 2.9688ZM8.64234 4.76525C7.79818 3.25265 5.52975 2.90514 3.97138 4.46352C2.87873 5.55617 2.16839 6.7622 2.1223 7.97806C2.02958 10.4235 2.63336 14.6876 6.97291 19.0272C11.3124 23.3666 15.5764 23.9705 18.022 23.8777C19.2379 23.8317 20.4439 23.1213 21.5365 22.0287C23.0948 20.4702 22.7473 18.2018 21.2348 17.3576L19.596 16.443C18.5765 15.8741 17.1445 16.0682 16.1393 17.0734C16.0406 17.172 15.4119 17.7586 14.2967 17.8128C13.1548 17.8683 11.7727 17.3554 10.2087 15.7913C8.64417 14.2267 8.13133 12.8443 8.18723 11.7024C8.24185 10.587 8.8284 9.95902 8.92654 9.8608C9.93178 8.85559 10.1259 7.42354 9.55695 6.40409L8.64234 4.76525Z" fill="white"/>
<path id="Vector_2" d="M20.081 10.8645C20.081 10.019 19.4187 8.72249 18.4322 7.66556C17.5303 6.69319 16.3324 5.93221 15.1487 5.93221" stroke="white" stroke-width="2" stroke-linecap="round" stroke-linejoin="round"/>
<path id="Vector_3" d="M25.0133 10.8646C25.0133 5.4109 20.6024 1 15.1487 1" stroke="white" stroke-width="2" stroke-linecap="round" stroke-linejoin="round"/>
</g>
</svg>
